# xmcd CD database file
#
# Track frame offsets:
#	150
#	11847
#	24760
#	35625
#	46960
#	58445
#	70757
#	82117
#	93977
#	106395
#	117690
#	129935
#	141827
#	153634
#	164565
#	175932
#	189160
#	202380
#	215605
#	229270
#	241905
#	254847
#	267310
#	280052
#	293400
#	307869
#
# Disc length: 4286 seconds
#
# Revision: 0
# Processed by: cddbd v1.5.2PL0 Copyright (c) Steve Scherf et al.
# Submitted via: CDex 1.70beta2
#
DISCID=8710bc1a
DTITLE=Bernie Cummings and his Orchestra - 1924-1930
DYEAR=1900
DGENRE=Jazz
TTITLE0=Home Folks Blues
TTITLE1=Ida
TTITLE2=Dancin' Dan
TTITLE3=When
TTITLE4=Jiminy Gee
TTITLE5=When the Wind blows North (Then the Start going South)
TTITLE6=St. Louis Blues
TTITLE7=When the Dixie Stars play Peek-A-Boo
TTITLE8=Brown Eyes
TTITLE9=Words
TTITLE10=Keep On Dancing
TTITLE11=Thats Georgia
TTITLE12=Lonely Me
TTITLE13=(I like Pie, I like Cake, but) I like you Best of All
TTITLE14=Popular Street Blues
TTITLE15=Make my Cot where the Cot-Cot-Cotton grows
TTITLE16=Ev'rybody loves my Girl
TTITLE17=Cooking Breakfst for the One I love
TTITLE18=Minnie the Mermaid (A Love Song in Fish Time)
TTITLE19=Livin' in the Sunlight, lovin' in the Moonlight
TTITLE20=Mysterious Mose
TTITLE21=Dust
TTITLE22=Be careful with those Eyes
TTITLE23=Cheer up (Good Times are coming)
TTITLE24=Hand me down my Walking Cane
TTITLE25=Deep Sea Low Down
EXTD=
EXTT0=
EXTT1=
EXTT2=
EXTT3=
EXTT4=
EXTT5=
EXTT6=
EXTT7=
EXTT8=
EXTT9=
EXTT10=
EXTT11=
EXTT12=
EXTT13=
EXTT14=
EXTT15=
EXTT16=
EXTT17=
EXTT18=
EXTT19=
EXTT20=
EXTT21=
EXTT22=
EXTT23=
EXTT24=
EXTT25=
PLAYORDER=
